<svg width="558" height="372" viewBox="0 0 558 372" fill="none" xmlns="http://www.w3.org/2000/svg">
<g clip-path="url(#clip0_117_14504)">
<path d="M289.61 333.672H274.888C274.419 333.672 274.04 330.475 274.04 326.533V248.869C274.04 244.927 274.419 241.73 274.888 241.73H289.61C290.079 241.73 290.458 244.927 290.458 248.869V326.533C290.458 330.475 290.079 333.672 289.61 333.672Z" fill="white" stroke="#E1E4E5" stroke-width="11"/>
<path d="M428.889 274.955H135.913C126.596 274.955 119.04 267.42 119.04 258.128V75.0622C119.04 65.7702 126.596 58.2354 135.913 58.2354H428.889C438.206 58.2354 445.762 65.7702 445.762 75.0622V258.128C445.762 267.42 438.206 274.955 428.889 274.955Z" fill="white" stroke="#E1E4E5" stroke-width="11"/>
<path d="M278.178 94.3506H160.158C156.734 94.3506 153.958 97.1264 153.958 100.551V205.125C153.958 208.55 156.734 211.325 160.158 211.325H278.178C281.603 211.325 284.378 208.55 284.378 205.125V100.551C284.378 97.1264 281.603 94.3506 278.178 94.3506Z" fill="#0077FF"/>
<path d="M198.327 164.266C198.327 157.212 192.609 151.493 185.555 151.493C178.5 151.493 172.782 157.212 172.782 164.266V169.644C172.782 176.699 178.5 182.418 185.555 182.418C192.609 182.418 198.327 176.699 198.327 169.644V164.266Z" fill="white"/>
<path d="M231.88 133.46C231.88 126.44 226.19 120.75 219.17 120.75C212.15 120.75 206.46 126.44 206.46 133.46V169.42C206.46 176.439 212.15 182.13 219.17 182.13C226.19 182.13 231.88 176.439 231.88 169.42V133.46Z" fill="white"/>
<path d="M264.74 150.199C264.74 143.18 259.05 137.489 252.03 137.489C245.011 137.489 239.32 143.18 239.32 150.199V169.419C239.32 176.439 245.011 182.129 252.03 182.129C259.05 182.129 264.74 176.439 264.74 169.419V150.199Z" fill="white"/>
<path d="M328.075 106.451L316.312 118.552L310.596 112.685M352.949 101.073H387.235M352.949 118.216H410.092M328.075 146.788L316.312 158.216L310.596 152.675M352.949 140.737H387.235M352.949 157.88H410.092M410.092 197.543H352.949M410.092 241.914H153.958M410.092 180.737H352.949M410.092 225.107H153.958" stroke="#E1E4E5" stroke-width="11" stroke-linecap="round" stroke-linejoin="round"/>
<path d="M319.336 203.258C325.648 203.258 330.764 198.141 330.764 191.829C330.764 185.518 325.648 180.401 319.336 180.401C313.024 180.401 307.907 185.518 307.907 191.829C307.907 198.141 313.024 203.258 319.336 203.258Z" stroke="#E1E4E5" stroke-width="11" stroke-linecap="round" stroke-linejoin="round"/>
<path d="M318.715 340.24H246.575C244.281 340.24 242.42 339.441 242.42 338.455V319.039C242.42 318.053 244.281 317.254 246.575 317.254H318.715C321.009 317.254 322.869 318.053 322.869 319.039V338.455C322.869 339.441 321.009 340.24 318.715 340.24Z" fill="white" stroke="#E1E4E5" stroke-width="11"/>
<path d="M493.366 165.651C483.835 170.378 471.185 164.3 471.185 164.3C471.185 164.3 473.996 150.558 483.532 145.837C493.063 141.11 505.707 147.182 505.707 147.182C505.707 147.182 502.896 160.923 493.366 165.651Z" fill="url(#paint0_linear_117_14504)"/>
<path d="M71.1841 264.549C84.6808 272.638 104.044 265.16 104.044 265.16C104.044 265.16 101.512 244.57 88.0071 236.49C74.511 228.401 55.1558 235.87 55.1558 235.87C55.1558 235.87 57.6879 256.459 71.1841 264.549Z" fill="url(#paint1_linear_117_14504)"/>
<path d="M415.58 71.4932C409.208 71.4932 404.042 76.6587 404.042 83.0308C404.042 89.4028 409.208 94.5684 415.58 94.5684C421.952 94.5684 427.117 89.4028 427.117 83.0308C427.117 76.6587 421.952 71.4932 415.58 71.4932Z" fill="#0077FF"/>
<path d="M88.8342 139.579C83.5888 139.579 79.3365 143.831 79.3365 149.077C79.3365 154.322 83.5888 158.575 88.8342 158.575C94.0797 158.575 98.332 154.322 98.332 149.077C98.332 143.831 94.0797 139.579 88.8342 139.579Z" fill="#0077FF"/>
<path d="M478.533 215.917C475.745 215.917 473.485 213.657 473.485 210.869C473.485 208.081 475.745 205.821 478.533 205.821C481.321 205.821 483.581 208.081 483.581 210.869C483.581 213.657 481.321 215.917 478.533 215.917Z" fill="#0077FF"/>
<path d="M106.19 312.95C101.013 312.95 96.8155 308.753 96.8155 303.576C96.8155 298.398 101.013 294.201 106.19 294.201C111.367 294.201 115.564 298.398 115.564 303.576C115.564 308.753 111.367 312.95 106.19 312.95Z" fill="#E1E4E5"/>
<path d="M359.915 309.583C355.974 309.583 352.78 306.388 352.78 302.448C352.78 298.507 355.974 295.313 359.915 295.313C363.855 295.313 367.05 298.507 367.05 302.448C367.05 306.388 363.855 309.583 359.915 309.583Z" fill="#E1E4E5"/>
<path d="M471.935 81.0731C467.554 81.0731 464.003 77.5217 464.003 73.1408C464.003 68.7599 467.554 65.2085 471.935 65.2085C476.316 65.2085 479.868 68.7599 479.868 73.1408C479.868 77.5217 476.316 81.0731 471.935 81.0731Z" fill="#E1E4E5"/>
<path d="M71.6201 180.244C72.6383 184.044 70.3832 187.949 66.5833 188.968C62.7833 189.986 58.8774 187.731 57.8592 183.931C56.841 180.131 59.0961 176.225 62.896 175.207C66.696 174.188 70.6019 176.444 71.6201 180.244Z" fill="#E1E4E5"/>
<path d="M127.171 45.2261C125.534 45.2261 124.206 43.8987 124.206 42.2612C124.206 40.6238 125.534 39.2964 127.171 39.2964C128.809 39.2964 130.136 40.6238 130.136 42.2612C130.136 43.8987 128.809 45.2261 127.171 45.2261Z" fill="#E1E4E5"/>
<path d="M342.248 37.2213C342.985 39.9721 341.353 42.7996 338.602 43.5367C335.851 44.2738 333.023 42.6413 332.286 39.8905C331.549 37.1397 333.182 34.3121 335.932 33.5751C338.683 32.838 341.511 34.4704 342.248 37.2213Z" fill="#E1E4E5"/>
<path fill-rule="evenodd" clip-rule="evenodd" d="M397.226 309.341L382.819 263.096C381.3 258.217 386.27 253.846 390.882 256.007L433.848 276.162C438.94 278.55 438.083 286.078 432.584 287.244L414.896 291.005L408.333 309.549C406.443 314.872 398.909 314.726 397.226 309.341Z" fill="white" stroke="#E1E4E5" stroke-width="11" stroke-linecap="round" stroke-linejoin="round"/>
</g>
<defs>
<linearGradient id="paint0_linear_117_14504" x1="456.766" y1="180.398" x2="535.376" y2="118.218" gradientUnits="userSpaceOnUse">
<stop stop-color="white"/>
<stop offset="1" stop-color="#EEEEEE"/>
</linearGradient>
<linearGradient id="paint1_linear_117_14504" x1="123.412" y1="290.587" x2="14.8143" y2="189.685" gradientUnits="userSpaceOnUse">
<stop stop-color="white"/>
<stop offset="1" stop-color="#EEEEEE"/>
</linearGradient>
<clipPath id="clip0_117_14504">
<rect width="558" height="372" fill="white"/>
</clipPath>
</defs>
</svg>
