<svg width="24" height="24" viewBox="0 0 24 24" fill="none" xmlns="http://www.w3.org/2000/svg">
<rect x="3" y="9" width="13" height="8" rx="0.6" fill="#FF3336" stroke="#FF3336"/>
<rect x="6" y="4" width="14" height="17" rx="0.6" stroke="#FF3336" stroke-width="1.6" stroke-linejoin="round"/>
<path d="M5 13H6C6.26522 13 6.51957 12.8946 6.70711 12.7071C6.89464 12.5196 7 12.2652 7 12C7 11.7348 6.89464 11.4804 6.70711 11.2929C6.51957 11.1054 6.26522 11 6 11H5V15M12 13H13.5M14 11H12V15M8.5 11V15H9.5C9.76522 15 10.0196 14.8946 10.2071 14.7071C10.3946 14.5196 10.5 14.2652 10.5 14V12C10.5 11.7348 10.3946 11.4804 10.2071 11.2929C10.0196 11.1054 9.76522 11 9.5 11H8.5Z" stroke="white" stroke-linecap="round" stroke-linejoin="round"/>
</svg>
